<svg id="Capa_1" xmlns="http://www.w3.org/2000/svg" viewBox="0 0 94 94"><style>.st2{fill:none}.st3{fill:#fff}</style><linearGradient id="SVGID_1_" gradientUnits="userSpaceOnUse" x1="65.626" y1="13.042" x2="24.914" y2="87"><stop offset="0" stop-color="#edbe6b"/><stop offset=".073" stop-color="#e59c60"/><stop offset=".195" stop-color="#da684f"/><stop offset=".287" stop-color="#d34844"/><stop offset=".338" stop-color="#d03c40"/><stop offset=".673" stop-color="#a051a3"/><stop offset="1" stop-color="#5455d0"/></linearGradient><path d="M63.9 94H30C13.4 94 0 80.6 0 64V30C0 13.4 13.4 0 30 0h33.9c16.6 0 30 13.4 30 30v34c0 16.6-13.5 30-30 30z" fill-rule="evenodd" clip-rule="evenodd" fill="url(#SVGID_1_)"/><linearGradient id="SVGID_2_" gradientUnits="userSpaceOnUse" x1="-98.246" y1="167.063" x2="-138.937" y2="240.984" gradientTransform="rotate(-90 -112 42.07)"><stop offset="0" stop-color="#edbe6b"/><stop offset=".073" stop-color="#e59c60"/><stop offset=".195" stop-color="#da684f"/><stop offset=".287" stop-color="#d34844"/><stop offset=".338" stop-color="#d03c40"/><stop offset=".673" stop-color="#a051a3"/><stop offset="1" stop-color="#5455d0"/></linearGradient><path d="M93.9 30v34c0 16.6-13.4 30-30 30H30C13.4 94 0 80.6 0 64V30C0 13.4 13.4 0 30 0h33.9c16.5 0 30 13.4 30 30z" opacity=".51" fill-rule="evenodd" clip-rule="evenodd" fill="url(#SVGID_2_)"/><path class="st2" d="M72.2 33.5c0-6.5-5.3-11.8-11.8-11.8H33.5c-6.5 0-11.8 5.3-11.8 11.8v26.8c0 6.5 5.3 11.8 11.8 11.8h26.8c6.5 0 11.8-5.3 11.8-11.8V33.5zm-25 30.2c-8.9 0-16.2-7.3-16.2-16.2 0-8.9 7.3-16.2 16.2-16.2 8.9 0 16.2 7.3 16.2 16.2 0 8.9-7.2 16.2-16.2 16.2zm15.7-29.5c-2.1 0-3.7-1.7-3.7-3.7 0-2.1 1.7-3.7 3.7-3.7s3.7 1.7 3.7 3.7-1.7 3.7-3.7 3.7z"/><path class="st2" d="M47.2 37.7c-5.4 0-9.8 4.4-9.8 9.8s4.4 9.8 9.8 9.8 9.8-4.4 9.8-9.8-4.4-9.8-9.8-9.8z"/><path class="st3" d="M78.3 33.3c0-10.2-7.6-17.7-17.8-17.7H33.9c-10.2 0-18.3 8.4-18.3 18.6v26.6c0 10.2 7.2 17.5 17.4 17.5h28.3c10.2 0 16.9-7.3 16.9-17.5V33.3zm-6.1 27.2c0 6.5-4.6 11.7-11.1 11.7H33.4c-6.5 0-11.7-5.2-11.7-11.7V33.6c0-6.5 5.1-12 11.7-12h26.8c6.5 0 12 5.4 12 12v26.9z"/><path class="st3" d="M47.2 31.3c-8.9 0-16.2 7.3-16.2 16.2 0 8.9 7.3 16.2 16.2 16.2 8.9 0 16.2-7.3 16.2-16.2 0-8.9-7.2-16.2-16.2-16.2zM57 47.5c0 5.4-4.4 9.8-9.8 9.8s-9.8-4.4-9.8-9.8 4.4-9.8 9.8-9.8 9.8 4.4 9.8 9.8zm5.9-20.8c-2.1 0-3.7 1.7-3.7 3.7 0 2.1 1.7 3.7 3.7 3.7s3.7-1.7 3.7-3.7-1.7-3.7-3.7-3.7z"/></svg>