<?xml version="1.0" encoding="UTF-8"?> <!-- Creator: CorelDRAW 2018 (64-Bit) --> <svg xmlns="http://www.w3.org/2000/svg" xmlns:xlink="http://www.w3.org/1999/xlink" xml:space="preserve" width="125.511mm" height="65.3961mm" style="shape-rendering:geometricPrecision; text-rendering:geometricPrecision; image-rendering:optimizeQuality; fill-rule:evenodd; clip-rule:evenodd" viewBox="0 0 12551.1 6539.61"> <defs> <style type="text/css"> <![CDATA[ .fil0 {fill:none} .fil1 {fill:#0C4C8B} .fil2 {fill:#0C4C8B;fill-rule:nonzero} ]]> </style> </defs> <g id="Layer_x0020_1"> <metadata id="CorelCorpID_0Corel-Layer"></metadata> <rect class="fil0" x="-0" y="-0" width="12551.1" height="6539.61"></rect> <g id="_1100321968"> <path class="fil1" d="M379.01 1791.61l1167.77 -674.24 0 746.42 -939.07 0 0 59.85 -228.7 -132.03zm1167.77 322.74l0 317.43 -13.02 26.56 -595.77 -343.99 608.79 0zm41.5 -1020.93l79.59 -45.96 554.43 320.14 634.02 366.07 -944.93 545.59 103.45 -216.41 0 -199.06 -426.56 0 0 -770.37zm0 1253.76l0 -232.83 110.83 0 0 6.85 -110.83 225.98zm121.03 -1323.65l1167.77 -674.24 0 1348.48 -1167.77 -674.24zm1209.24 -674.26l1167.8 674.26 -880.81 508.56 -286.99 165.68 0 -1348.5zm1209.24 698.19l79.56 45.93 0 1372.46 -1268.07 -732.15 1020.97 -589.53 167.54 -96.71zm121.06 69.88l1167.74 674.24 -1167.74 674.27 0 -1348.51zm1188.53 710.14l0 1348.53 -656.44 -379.02 -511.36 -295.25 1167.8 -674.26zm0 1396.43l0 91.81 -297.08 171.54 136.27 -356.21 160.81 92.86zm-505.34 383.6l-27.33 15.77c-6.74,-20.18 -13.75,-40.17 -21.02,-59.9l-166.15 -452.62 -189.86 0 236.87 593.46 -17.43 10.06 -498.27 287.69 0 -93.31c134.83,-13.67 251.53,-90.48 251.53,-241.69 0,-133.31 -92.7,-198.18 -207.96,-241.23 -13.28,-5.26 -28.44,-10.86 -43.57,-17.46l0 -172.86c6.54,-0.81 13.22,-1.25 19.87,-1.25 49.87,0 99.79,15 141.9,41.61l21.04 13.28 44.71 -136.22 -12.47 -8.15c-53.53,-34.98 -129.09,-49.32 -192.1,-49.32 -7.68,0 -15.33,0.25 -22.95,0.75l0 -558.48 634.01 366.08 358.56 207.04 -142.23 0 -152.13 450.01c-5.24,15.52 -10.2,31.1 -15.02,46.74zm-683.19 159.28l0 -188.06c43.63,19.32 81.96,46.68 81.96,100.52 0,53.66 -37.25,78.78 -81.96,87.54zm1188.53 -403.17l0 1348.51 -656.44 -379.02 -511.36 -295.25 510.5 -294.75 32.01 80.23c3.25,7.23 9.37,21.01 9.37,28.19 -0.03,4.63 -7.09,19.93 -9.09,24.39 -24.14,51.76 -62.7,107.45 -108.14,143.4 -32.29,27.33 -72.43,50.2 -112.26,62.87l-18.22 5.79 44.36 147.2 17.04 -3.11c61.52,-11.2 128.04,-50.78 175.14,-90.37 123.99,-109.52 203.38,-323.52 260.96,-473.96l45.54 -119.03 320.59 -185.09zm-20.76 1384.41l-1167.77 674.21 0 -1348.48 529.23 305.56 104.78 60.52 533.76 308.19zm-1209.27 698.19l-79.59 45.93 -1188.48 -686.21 696.06 -401.89 572.01 -330.29 0 1372.46zm-121.03 69.88l-1167.77 674.21 0 -1348.45 633.99 366.05 533.78 308.19zm-1209.24 674.24l-1167.77 -674.24 1167.77 -674.24 0 1348.48zm-1209.24 -698.16l-79.56 -45.96 0 -1372.46 634.02 366.08 348.08 200.99c-81.61,58.69 -194.51,92.29 -333.89,92.29 -205.9,0 -398.12,-65.23 -531.95,-151.02l-78.95 250.53c123.55,82.39 367.24,151.02 590.31,151.02 270.91,0 471.55,-77.01 604.99,-198.17l35.46 20.46 -1188.51 686.24zm-121.06 -69.91l-1167.77 -674.24 608.71 -351.47 559.06 -322.8 0 1348.51zm-1188.53 -710.14l0 -1348.51 533.73 308.17 36.37 20.98 -197.1 401.86 312.33 0 125.63 -262.78 356.84 206.01 -1167.8 674.27zm0 -1396.38l0 -91.86 484.41 -279.7 631.69 -364.72 -527.71 1076.02 -114.21 -65.95 -474.18 -273.79zm1188.53 -273.76l0 959.98 -359.64 -207.66 359.64 -752.32zm-1188.53 134.02l0 -1348.53 249.46 144.03 0 142.84 247.4 0 36.87 21.29 623.48 360.01 -8.34 17.04 -1148.87 663.32zm3194.29 -1040.37l-633.99 -366.04 0 932.23 11.23 6.38 -11.23 33.2 0 492.48 1268.06 -732.15 -634.07 -366.1zm82.8 732.29l-420.57 242.83 87.84 0 5.71 94.61c61.79,-74.51 149.56,-110 251.34,-110 218.74,0 336.25,194.02 336.25,396.24 0,105.39 -28.33,205.96 -83.74,282.19l395.18 228.17 0 -91.09 -3.25 0.02c-73.59,0 -155.12,-17.38 -219.01,-54.96l-13.36 -7.85 44.43 -139.52 20.99 12.45c47.87,28.39 113.95,49.56 170.03,49.56l0.17 0 0 -208.17 -0.72 -0.28c-103.65,-38.2 -211.09,-105.87 -211.09,-228.94 0,-129.32 95.85,-210.15 211.81,-231.88l0 -563.67 -572.01 330.29zm-489.51 282.64l-206.55 119.25 211.84 122.3 0 -18.93c0,-74.38 -2.22,-148.36 -5.29,-222.62zm177.93 341.23l343.65 198.42c37.15,-51.36 52.81,-122.41 52.81,-192.46 0,-124.3 -61.71,-255.91 -202.08,-255.91 -89.76,0 -164.8,65 -185.84,151.85 -4.1,15 -8.54,33.13 -8.54,48.7l0 49.4zm883.59 -105.7l0 -138.4c-24.78,12.75 -42.28,35.04 -42.28,68.58 0,31.29 18.02,53.25 42.28,69.82zm-1288.8 -80.36l0 651.57c69.27,97.91 103.9,214.14 103.9,357.09 0,129.32 -34.27,252.75 -103.9,357.62l0 97.99 1268.04 -732.15 -401.06 -231.54c-59.57,64.33 -142.9,104.58 -248.93,104.58 -79.31,0 -158.39,-27.16 -212.84,-83.49l0 371.12 -172.64 0 0 -758.51 -232.57 -134.28zm720.42 415.95l-86.43 -49.9 -228.78 -132.09 0 31.88c0,16.83 1.2,34.12 5.52,50.42 22.43,84.99 95.89,143.98 184.26,143.98 52.94,0 94.19,-16.8 125.43,-44.29zm-761.89 -1952.09l-997.32 575.83 -117.12 245.02 206.19 119.06c121.38,-72.77 275.4,-114.57 453,-114.57 196.56,0 351.71,38.95 455.25,86.1l0 -911.44zm-639.04 1095.36l639.04 368.93 0 -369.84 -29.69 87.82c-72.07,-44.61 -226.5,-109.83 -435.84,-109.83 -66.2,0 -123.8,8.34 -173.51,22.92zm-629 1172.93l598.4 345.51 397.43 229.44c75.17,-68.8 115.54,-163.44 115.54,-274.41 0,-212.8 -123.55,-339.79 -435.85,-456.47 -84.02,-30.54 -160.86,-64.17 -229.64,-101.51l-445.88 257.44zm1242.73 717.51l25.31 14.61 0 -42.74c-8.09,9.59 -16.52,18.96 -25.31,28.13zm25.31 -850.01l0 -599.65 -517.26 298.66c24.03,10.09 49.26,20.21 75.73,30.47 196.54,75.84 343.73,161.25 441.53,270.52zm-564.63 -321.53l543.9 -314.04 -367.52 -212.2 -301.98 -174.36c-149.94,64.28 -211.18,192.71 -211.18,305.42 0,186.09 104.23,290.84 336.78,395.18zm-382.77 -849.1l-184.97 -106.8 -156.43 327.21 0 1046.8 424.87 -245.3c-214.69,-127.96 -339.52,-297.74 -339.52,-533.67 0,-202.22 94.03,-375.31 256.05,-488.24zm382.77 849.1l543.9 -314.04 -543.9 314.04z"></path> <g> <path class="fil2" d="M6551.97 2157.18c0,6.41 -0.34,11.93 -1.03,16.6 -0.7,4.68 -1.73,8.48 -3.29,11.42 -1.56,2.77 -3.29,5.02 -5.54,6.23 -2.25,1.38 -4.67,2.08 -7.26,2.08l-184.22 0 0 569.08c0,2.77 -0.69,5.02 -2.08,7.09 -1.38,2.08 -3.62,3.64 -7.08,4.85 -3.29,1.21 -7.79,2.25 -13.32,3.11 -5.71,0.87 -12.63,1.21 -21.11,1.21 -8.12,0 -15.04,-0.34 -20.75,-1.21 -5.71,-0.86 -10.38,-1.9 -13.67,-3.11 -3.46,-1.21 -5.71,-2.77 -7.1,-4.85 -1.38,-2.07 -2.07,-4.32 -2.07,-7.09l0 -569.08 -184.22 0c-2.59,0 -5.01,-0.7 -7.26,-2.08 -2.25,-1.21 -3.98,-3.46 -5.36,-6.23 -1.21,-2.94 -2.42,-6.74 -3.29,-11.42 -0.86,-4.67 -1.21,-10.19 -1.21,-16.6 0,-6.4 0.35,-12.11 1.21,-16.95 0.87,-4.85 2.08,-8.82 3.29,-11.77 1.38,-3.11 3.11,-5.36 5.36,-6.57 2.25,-1.37 4.67,-2.07 7.26,-2.07l455.62 0c2.59,0 5.01,0.7 7.26,2.07 2.25,1.21 3.98,3.46 5.54,6.57 1.56,2.95 2.59,6.92 3.29,11.77 0.69,4.84 1.03,10.55 1.03,16.95zm380.38 357.89c0,13.14 -3.29,22.48 -9.86,28.19 -6.58,5.54 -14.19,8.3 -22.67,8.3l-299.59 0c0,25.43 2.6,48.26 7.62,68.5 5.01,20.41 13.49,37.89 25.42,52.41 11.76,14.53 27.16,25.6 46.01,33.39 19.03,7.78 42.21,11.76 69.54,11.76 21.62,0 41,-1.73 57.77,-5.37 16.95,-3.46 31.66,-7.43 43.93,-11.75 12.29,-4.33 22.5,-8.31 30.45,-11.77 7.96,-3.63 13.84,-5.36 17.99,-5.36 2.42,0 4.5,0.52 6.4,1.73 1.73,1.21 3.29,2.94 4.15,5.36 1.04,2.25 1.9,5.54 2.42,9.69 0.52,4.33 0.7,9.33 0.7,15.39 0,4.32 -0.18,8.13 -0.52,11.42 -0.35,3.11 -0.7,6.05 -1.21,8.48 -0.52,2.59 -1.39,4.84 -2.6,6.92 -1.21,1.9 -2.6,3.8 -4.5,5.71 -1.9,1.9 -7.44,4.84 -16.42,8.98 -9.17,4.33 -20.94,8.31 -35.47,12.46 -14.53,3.98 -31.31,7.61 -50.33,10.73 -19.03,3.28 -39.27,4.84 -60.89,4.84 -37.53,0 -70.23,-5.19 -98.42,-15.74 -28.19,-10.38 -51.9,-25.95 -71.09,-46.53 -19.21,-20.76 -33.74,-46.53 -43.42,-77.67 -9.86,-30.96 -14.7,-67.12 -14.7,-108.46 0,-39.09 5.01,-74.37 15.22,-105.68 10.03,-31.14 24.73,-57.77 43.76,-79.57 19.02,-21.79 42.21,-38.4 69.19,-50.16 26.99,-11.59 57.26,-17.47 90.64,-17.47 35.8,0 66.25,5.71 91.33,17.3 25.26,11.41 45.84,26.98 62.1,46.35 16.08,19.38 28.02,42.21 35.63,68.5 7.61,26.12 11.42,54.14 11.42,83.89l0 15.23zm-84.07 -24.74c1.04,-43.94 -8.65,-78.53 -29.23,-103.61 -20.58,-25.08 -50.86,-37.54 -91.16,-37.54 -20.75,0 -38.92,3.8 -54.49,11.59 -15.56,7.79 -28.54,18.17 -39.09,31.14 -10.55,12.8 -18.68,27.85 -24.39,44.8 -5.71,17.12 -8.99,34.94 -9.69,53.62l248.05 0zm552.14 263.09c2.77,4.84 4.15,8.82 4.15,11.94 0,3.28 -1.73,5.88 -4.84,7.96 -3.29,1.9 -8.13,3.46 -14.71,4.32 -6.57,0.87 -15.22,1.21 -25.59,1.21 -10.21,0 -18.17,-0.17 -24.05,-0.69 -6.06,-0.52 -10.73,-1.38 -14.19,-2.6 -3.63,-1.21 -6.39,-2.76 -8.12,-4.49 -1.9,-1.91 -3.46,-3.98 -4.85,-6.41l-109.49 -181.1 -108.97 181.1c-1.38,2.43 -2.94,4.5 -4.84,6.41 -1.73,1.73 -4.5,3.28 -8.14,4.49 -3.46,1.22 -8.13,2.08 -13.84,2.6 -5.71,0.52 -13.32,0.69 -22.82,0.69 -9.87,0 -17.82,-0.34 -24.05,-1.21 -6.23,-0.86 -10.9,-2.42 -13.67,-4.32 -2.93,-2.08 -4.32,-4.68 -4.14,-7.96 0.17,-3.12 1.9,-7.1 4.83,-11.94l142.01 -222.45 -134.4 -214.48c-2.59,-4.85 -4.15,-8.82 -4.32,-11.94 -0.17,-3.28 1.38,-5.87 4.67,-8.12 3.11,-2.25 7.96,-3.63 14.71,-4.33 6.57,-0.69 15.22,-1.03 25.94,-1.03 9.86,0 17.64,0.17 23.7,0.69 5.88,0.52 10.55,1.38 13.84,2.42 3.45,0.87 5.87,2.25 7.6,3.98 1.73,1.73 3.29,3.8 4.68,6.05l103.78 169.86 105.52 -169.86c1.21,-2.08 2.77,-3.8 4.5,-5.53 1.72,-1.73 3.97,-3.12 6.74,-4.33 2.94,-1.21 6.92,-2.07 12.28,-2.59 5.19,-0.52 12.46,-0.69 21.45,-0.69 9.86,0 17.81,0.34 24.04,1.03 6.4,0.7 10.9,1.91 14.02,3.81 3.11,1.9 4.32,4.5 3.98,7.78 -0.35,3.46 -1.91,7.61 -5.02,12.8l-133.19 211.89 140.8 225.04zm504.21 9.69c0,2.77 -0.69,5.02 -2.07,6.92 -1.39,1.73 -3.45,3.46 -6.57,4.84 -3.11,1.21 -7.26,2.25 -12.8,2.94 -5.36,0.7 -12.11,1.04 -20.24,1.04 -8.64,0 -15.56,-0.34 -20.93,-1.04 -5.53,-0.69 -9.69,-1.73 -12.8,-2.94 -3.11,-1.38 -5.19,-3.11 -6.58,-4.84 -1.38,-1.9 -2.07,-4.15 -2.07,-6.92l0 -200.13 -231.44 0 0 200.13c0,2.77 -0.69,5.02 -2.08,6.92 -1.38,1.73 -3.45,3.46 -6.56,4.84 -3.12,1.21 -7.27,2.25 -12.81,2.94 -5.36,0.7 -12.28,1.04 -20.76,1.04 -8.29,0 -15.04,-0.34 -20.4,-1.04 -5.54,-0.69 -9.86,-1.73 -12.98,-2.94 -3.29,-1.38 -5.54,-3.11 -6.75,-4.84 -1.21,-1.9 -1.73,-4.15 -1.73,-6.92l0 -456.31c0,-2.77 0.52,-5.01 1.73,-6.91 1.21,-1.73 3.46,-3.46 6.75,-5.02 3.12,-1.55 7.44,-2.59 12.98,-3.11 5.36,-0.52 12.11,-0.69 20.4,-0.69 8.48,0 15.4,0.17 20.76,0.69 5.54,0.52 9.69,1.56 12.81,3.11 3.11,1.56 5.18,3.29 6.56,5.02 1.39,1.9 2.08,4.14 2.08,6.91l0 185.6 231.44 0 0 -185.6c0,-2.77 0.69,-5.01 2.07,-6.91 1.39,-1.73 3.47,-3.46 6.58,-5.02 3.11,-1.55 7.27,-2.59 12.8,-3.11 5.37,-0.52 12.29,-0.69 20.93,-0.69 8.13,0 14.88,0.17 20.24,0.69 5.54,0.52 9.69,1.56 12.8,3.11 3.12,1.56 5.18,3.29 6.57,5.02 1.38,1.9 2.07,4.14 2.07,6.91l0 456.31zm578.78 -233.52c0,37.2 -4.84,71.44 -14.7,102.75 -9.69,31.13 -24.39,58.12 -43.77,80.78 -19.36,22.66 -43.76,40.3 -72.81,52.93 -29.24,12.63 -63.14,19.03 -101.54,19.03 -37.54,0 -70.23,-5.54 -98.08,-16.78 -27.85,-11.07 -51.03,-27.33 -69.53,-48.61 -18.51,-21.27 -32.35,-47.22 -41.51,-77.49 -9.17,-30.44 -13.67,-64.87 -13.67,-103.44 0,-37.19 4.84,-71.43 14.36,-102.57 9.68,-31.31 24.21,-58.29 43.59,-80.96 19.36,-22.65 43.59,-40.12 72.64,-52.75 29.06,-12.45 62.97,-18.68 101.71,-18.68 37.54,0 70.23,5.54 98.08,16.78 27.85,11.06 51.03,27.33 69.53,48.6 18.52,21.28 32.52,47.05 41.86,77.5 9.17,30.44 13.84,64.68 13.84,102.91zm-87.18 5.36c0,-24.73 -2.24,-48.08 -6.92,-70.05 -4.49,-21.97 -12.11,-41.16 -22.66,-57.77 -10.37,-16.6 -24.73,-29.75 -42.72,-39.27 -17.81,-9.68 -40.31,-14.53 -67.11,-14.53 -24.74,0 -46.01,4.33 -63.84,13.15 -17.81,8.82 -32.34,21.28 -43.93,37.36 -11.58,16.09 -20.06,35.11 -25.6,57.08 -5.71,21.97 -8.47,46.02 -8.47,71.96 0,25.08 2.25,48.6 6.92,70.58 4.49,21.96 12.11,41.16 22.82,57.6 10.73,16.25 25.09,29.4 42.9,38.92 17.99,9.68 40.49,14.52 67.29,14.52 24.39,0 45.5,-4.32 63.49,-13.14 17.98,-8.82 32.69,-21.11 44.28,-37.02 11.58,-15.91 20.06,-34.94 25.42,-56.9 5.37,-21.98 8.13,-46.19 8.13,-72.49zm566.49 228.16c0,2.77 -0.69,5.02 -2.07,6.92 -1.39,1.73 -3.46,3.46 -6.58,4.84 -2.94,1.21 -7.27,2.25 -12.63,2.94 -5.35,0.7 -12.1,1.04 -20.23,1.04 -8.48,0 -15.4,-0.34 -20.76,-1.04 -5.37,-0.69 -9.68,-1.73 -12.97,-2.94 -3.11,-1.38 -5.36,-3.11 -6.75,-4.84 -1.38,-1.9 -2.07,-4.15 -2.07,-6.92l0 -398.36 -125.58 0c-5.36,53.62 -11.94,101.36 -19.55,143.22 -7.61,41.86 -16.09,78.36 -25.6,109.5 -9.51,30.96 -20.24,57.25 -32,78.53 -11.76,21.27 -24.73,38.4 -38.75,51.37 -14.18,12.97 -29.4,22.31 -45.84,28.02 -16.25,5.71 -33.9,8.65 -52.41,8.65 -3.11,0 -5.71,-0.52 -7.95,-1.55 -2.07,-1.04 -3.98,-2.77 -5.36,-5.54 -1.21,-2.6 -2.25,-6.4 -2.94,-11.42 -0.7,-4.84 -1.04,-11.07 -1.04,-18.85 0,-8.13 0.17,-14.7 0.69,-19.72 0.52,-5.02 1.39,-9.17 2.6,-12.11 1.21,-3.12 2.76,-5.02 4.49,-6.06 1.91,-1.03 4.15,-1.55 6.92,-1.55 11.24,0 21.79,-2.59 32,-7.78 10.03,-5.36 19.54,-14.01 28.37,-25.95 8.82,-11.93 17.12,-27.67 24.91,-47.05 7.6,-19.54 14.7,-43.42 21.27,-71.78 6.4,-28.37 12.46,-61.58 18.17,-99.64 5.71,-37.88 11.23,-81.64 16.25,-130.94 0.69,-10.21 3.11,-17.65 7.44,-22.65 4.15,-4.85 10.21,-7.27 17.99,-7.27l234.21 0c7.95,0 14.35,2.42 18.85,7.44 4.67,4.83 6.92,12.27 6.92,22.48l0 439.01zm578.43 -233.52c0,37.2 -4.85,71.44 -14.71,102.75 -9.69,31.13 -24.39,58.12 -43.76,80.78 -19.37,22.66 -43.76,40.3 -72.82,52.93 -29.24,12.63 -63.14,19.03 -101.54,19.03 -37.53,0 -70.22,-5.54 -98.08,-16.78 -27.84,-11.07 -51.03,-27.33 -69.53,-48.61 -18.51,-21.27 -32.35,-47.22 -41.51,-77.49 -9.17,-30.44 -13.67,-64.87 -13.67,-103.44 0,-37.19 4.84,-71.43 14.36,-102.57 9.68,-31.31 24.21,-58.29 43.59,-80.96 19.37,-22.65 43.59,-40.12 72.65,-52.75 29.05,-12.45 62.96,-18.68 101.71,-18.68 37.53,0 70.22,5.54 98.07,16.78 27.85,11.06 51.03,27.33 69.54,48.6 18.51,21.28 32.51,47.05 41.85,77.5 9.17,30.44 13.85,64.68 13.85,102.91zm-87.18 5.36c0,-24.73 -2.25,-48.08 -6.92,-70.05 -4.5,-21.97 -12.11,-41.16 -22.67,-57.77 -10.37,-16.6 -24.73,-29.75 -42.72,-39.27 -17.81,-9.68 -40.3,-14.53 -67.11,-14.53 -24.74,0 -46.01,4.33 -63.83,13.15 -17.81,8.82 -32.35,21.28 -43.94,37.36 -11.58,16.09 -20.06,35.11 -25.59,57.08 -5.71,21.97 -8.48,46.02 -8.48,71.96 0,25.08 2.25,48.6 6.92,70.58 4.5,21.96 12.11,41.16 22.83,57.6 10.72,16.25 25.08,29.4 42.89,38.92 18,9.68 40.49,14.52 67.3,14.52 24.38,0 45.49,-4.32 63.48,-13.14 17.99,-8.82 32.69,-21.11 44.28,-37.02 11.59,-15.91 20.06,-34.94 25.43,-56.9 5.36,-21.98 8.13,-46.19 8.13,-72.49zm482.94 -203.41c0,6.75 -0.35,12.46 -1.21,17.12 -0.87,4.67 -2.08,8.65 -3.64,11.59 -1.38,3.12 -3.11,5.36 -5.01,6.58 -1.9,1.38 -4.15,2.07 -6.74,2.07l-171.25 0 0 394.21c0,2.77 -0.69,5.02 -2.08,6.92 -1.38,1.73 -3.45,3.46 -6.56,4.84 -3.12,1.21 -7.27,2.25 -12.81,2.94 -5.36,0.7 -12.28,1.04 -20.76,1.04 -8.29,0 -15.04,-0.34 -20.4,-1.04 -5.54,-0.69 -9.87,-1.73 -12.98,-2.94 -3.29,-1.38 -5.54,-3.11 -6.75,-4.84 -1.21,-1.9 -1.73,-4.15 -1.73,-6.92l0 -439.01c0,-10.21 2.25,-17.65 6.92,-22.65 4.5,-4.85 10.73,-7.27 18.86,-7.27l229.37 0c2.76,0 5.01,0.69 6.91,2.25 1.9,1.56 3.46,3.81 5.01,7.08 1.56,3.12 2.77,7.1 3.64,11.6 0.86,4.49 1.21,10.03 1.21,16.43zm492.63 432.09c0,2.42 -0.69,4.67 -2.08,6.57 -1.38,2.08 -3.46,3.63 -6.57,4.85 -2.93,1.21 -7.26,2.07 -12.62,2.76 -5.37,0.7 -12.11,1.04 -20.24,1.04 -8.14,0 -14.87,-0.34 -20.24,-1.04 -5.36,-0.69 -9.86,-1.55 -13.15,-2.76 -3.46,-1.22 -5.7,-2.77 -7.09,-4.85 -1.38,-2.07 -2.08,-4.15 -2.08,-6.57l0 -262.58c0,-13.32 0.35,-26.63 1.04,-40.47 0.69,-13.67 1.56,-26.98 2.6,-40.3 -7.79,13.66 -16.44,26.8 -25.6,39.95 -9.34,12.98 -18.68,25.94 -28.03,38.75l-193.2 264.65c-2.42,2.77 -4.5,5.01 -6.4,7.09 -1.91,2.08 -4.33,3.63 -7.1,4.84 -2.94,1.22 -6.57,2.08 -11.07,2.6 -4.32,0.52 -9.86,0.69 -16.26,0.69 -7.43,0 -13.66,-0.34 -18.33,-1.04 -4.85,-0.69 -8.65,-1.55 -11.42,-2.76 -2.94,-1.22 -5.02,-2.77 -6.23,-4.85 -1.21,-2.07 -1.73,-4.15 -1.73,-6.57l0 -457.35c0,-2.42 0.52,-4.49 1.73,-6.56 1.21,-2.08 3.46,-3.81 6.75,-5.02 3.11,-1.38 7.44,-2.42 12.97,-2.94 5.37,-0.52 11.94,-0.69 19.89,-0.69 16.26,0 27.51,1.21 33.57,3.8 6.04,2.6 9.16,6.4 9.16,11.41l0 264.14c0,13.14 -0.35,26.29 -1.04,39.27 -0.69,13.13 -1.56,25.94 -2.6,38.91 7.79,-12.97 15.75,-25.43 23.7,-37.88 7.79,-12.28 16.44,-24.39 25.43,-36.16l195.81 -268.28c1.9,-2.77 3.98,-5.01 6.23,-6.91 2.25,-1.9 4.84,-3.46 8.13,-4.5 3.11,-1.21 6.92,-1.9 11.41,-2.42 4.32,-0.52 10.03,-0.86 17.13,-0.86 7.09,0 13.14,0.34 17.99,0.86 5.02,0.52 8.82,1.38 11.75,2.77 2.77,1.38 4.85,2.94 6.06,5.02 1.21,2.06 1.73,4.31 1.73,7.08l0 456.31zm491.43 -0.52c0,2.77 -0.52,5.02 -1.73,7.09 -1.21,2.08 -3.29,3.63 -6.4,4.85 -3.12,1.21 -7.27,2.07 -12.81,2.76 -5.36,0.7 -12.44,1.04 -21.27,1.04 -8.3,0 -15.05,-0.34 -20.41,-1.04 -5.54,-0.69 -9.86,-1.55 -12.98,-2.76 -3.28,-1.22 -5.53,-2.77 -6.74,-4.85 -1.21,-1.9 -1.73,-4.32 -1.73,-7.09l0 -191.82 -48.08 0c-20.94,0 -37.19,1.72 -48.96,5 -11.59,3.46 -22.14,9 -31.3,16.96 -9.34,7.96 -17.65,18.17 -25.09,30.44 -7.44,12.28 -14.53,27.34 -21.27,45.32l-37.02 89.08c-1.73,4.33 -3.46,7.96 -5.53,10.55 -2.08,2.77 -5.02,4.85 -8.82,6.41 -3.81,1.55 -8.83,2.59 -14.71,3.11 -5.88,0.52 -13.15,0.69 -21.96,0.69 -6.23,0 -11.94,-0.17 -16.78,-0.52 -4.85,-0.34 -9,-0.86 -12.46,-1.73 -3.29,-0.86 -5.88,-2.25 -7.44,-4.15 -1.73,-1.73 -2.6,-4.15 -2.6,-6.75 0,-2.42 0.87,-6.23 2.77,-11.42 1.9,-5.18 5.71,-14.35 11.42,-27.49l36.5 -85.63c9.51,-21.62 21.1,-40.3 34.94,-55.87 13.84,-15.73 29.75,-27.33 47.74,-34.76 -32.87,-6.06 -58.81,-19.21 -78.36,-39.27 -19.37,-20.24 -29.05,-46.88 -29.05,-80.08 0,-21.98 4.49,-41.86 13.66,-59.68 9.16,-17.82 22.49,-32.87 40.31,-45.15 17.63,-12.46 39.43,-21.97 65.37,-28.54 25.78,-6.57 55.36,-9.86 88.91,-9.86 7.96,0 17.48,0.17 28.03,0.52 10.72,0.35 21.62,0.87 32.86,1.56 11.42,0.69 22.31,1.38 33.04,2.25 10.55,0.86 19.72,1.55 27.5,2.25 10.21,1.03 17.82,4.67 22.84,11.23 5.01,6.4 7.61,14.36 7.61,23.7l0 433.65zm-84.07 -407.7c-12.11,-1.73 -24.56,-2.94 -37.36,-3.46 -12.63,-0.52 -24.39,-0.7 -35.29,-0.7 -22.83,0 -41.86,1.91 -57.08,5.89 -15.39,3.8 -27.5,9.51 -36.85,16.78 -9.16,7.27 -15.73,15.92 -19.54,25.77 -3.98,9.69 -5.88,20.59 -5.88,32.52 0,12.11 2.25,23.18 6.75,32.87 4.67,9.69 11.42,17.81 20.75,24.38 9.17,6.58 21.11,11.77 35.47,15.23 14.52,3.63 34.59,5.36 60.53,5.36l68.5 0 0 -154.64zm-4129.76 1277.83c0.34,7.44 -2.08,12.63 -7.1,15.74 -5.01,2.94 -15.4,4.5 -30.79,4.5 -8.47,0 -15.39,-0.17 -20.76,-0.52 -5.36,-0.34 -9.68,-1.04 -12.62,-2.07 -3.12,-1.04 -5.2,-2.43 -6.41,-4.33 -1.21,-1.73 -1.9,-4.15 -2.25,-7.27l-33.38 -265.86c-1.04,-9.51 -2.07,-19.54 -3.11,-30.44 -1.04,-10.72 -1.9,-21.8 -2.94,-32.86 -1.04,-11.24 -2.08,-22.32 -2.94,-33.39 -0.87,-11.24 -1.73,-21.62 -2.77,-31.48l-0.52 -11.59c-3.12,9.69 -6.23,20.07 -9.68,30.8 -3.29,10.89 -6.92,21.79 -10.9,33.03 -3.81,11.07 -7.61,22.31 -11.07,33.38 -3.64,11.08 -6.92,21.63 -9.86,31.48l-95.83 269.84c-1.39,3.98 -2.94,7.44 -4.85,10.21 -1.9,2.59 -4.31,4.84 -7.6,6.57 -3.29,1.56 -7.27,2.77 -12.11,3.46 -5.02,0.7 -10.9,1.04 -17.99,1.04 -7.1,0 -13.14,-0.34 -17.81,-1.04 -4.68,-0.69 -8.66,-1.73 -11.94,-3.28 -3.29,-1.56 -5.88,-3.64 -7.79,-6.41 -2.07,-2.59 -3.8,-6.05 -5.19,-10.03l-92.19 -270.36c-3.46,-9.51 -6.92,-19.71 -10.38,-30.44 -3.63,-10.9 -7.26,-21.96 -10.72,-33.21 -3.63,-11.24 -7.1,-22.49 -10.38,-33.73 -3.46,-11.07 -6.23,-21.62 -8.65,-31.31l-0.52 11.59c-1.04,9.86 -1.91,20.24 -2.94,31.48 -1.04,11.07 -2.08,22.15 -3.29,33.39 -1.04,11.06 -2.25,22.14 -3.46,32.86 -1.04,10.9 -2.08,20.93 -2.6,30.44l-30.78 261.37c-0.35,3.98 -1.04,7.26 -2.25,9.86 -1.21,2.42 -3.46,4.32 -6.92,5.53 -3.46,1.22 -7.78,2.08 -13.14,2.6 -5.54,0.52 -12.63,0.69 -21.45,0.69 -8.48,0 -15.23,-0.34 -20.06,-1.04 -5.02,-0.69 -8.65,-1.9 -11.25,-3.46 -2.59,-1.73 -4.15,-3.8 -4.84,-6.4 -0.7,-2.59 -0.7,-5.71 0,-9.34l49.81 -431.57c1.73,-10.72 5.54,-18.86 11.42,-24.57 5.88,-5.52 14.87,-8.29 26.64,-8.29l39.95 0c9.69,0 18,0.69 24.92,2.25 6.91,1.56 12.79,4.15 17.81,7.95 4.84,3.63 8.99,8.65 12.28,14.88 3.46,6.22 6.57,14.01 9.69,23.53l67.45 193.89c3.64,11.94 7.62,23.88 11.6,35.82 4.15,11.93 7.95,23.69 11.41,35.45 3.64,11.59 6.92,23.01 10.2,34.08 3.12,11.24 6.06,21.79 8.83,32l1.03 0c3.12,-10.56 6.23,-21.62 9.35,-33.21 3.28,-11.59 6.74,-23.52 10.38,-35.46 3.8,-11.94 7.61,-23.88 11.42,-35.63 3.97,-11.94 7.77,-23.18 11.41,-33.91l67.46 -193.03c2.77,-8.48 5.71,-15.75 8.82,-21.98 3.28,-6.22 7.26,-11.42 11.93,-15.22 4.85,-3.97 10.38,-6.74 17.13,-8.64 6.57,-1.91 14.53,-2.77 24.04,-2.77l39.62 0c12.1,0 21.44,2.59 27.67,7.61 6.23,5.01 9.86,13.14 10.9,24.21l50.86 432.61zm549.87 -229.02c0,37.2 -4.84,71.44 -14.7,102.75 -9.69,31.13 -24.39,58.12 -43.76,80.78 -19.37,22.66 -43.77,40.3 -72.82,52.93 -29.24,12.63 -63.14,19.03 -101.54,19.03 -37.54,0 -70.22,-5.54 -98.08,-16.78 -27.84,-11.08 -51.03,-27.33 -69.53,-48.61 -18.51,-21.27 -32.35,-47.22 -41.51,-77.49 -9.17,-30.44 -13.67,-64.87 -13.67,-103.44 0,-37.19 4.84,-71.43 14.36,-102.57 9.68,-31.31 24.21,-58.29 43.59,-80.96 19.37,-22.65 43.59,-40.13 72.64,-52.76 29.06,-12.44 62.97,-18.67 101.71,-18.67 37.54,0 70.23,5.54 98.08,16.78 27.85,11.06 51.03,27.33 69.53,48.6 18.52,21.28 32.52,47.05 41.86,77.5 9.17,30.44 13.84,64.68 13.84,102.91zm-87.17 5.36c0,-24.73 -2.25,-48.08 -6.93,-70.05 -4.49,-21.97 -12.11,-41.16 -22.66,-57.77 -10.37,-16.6 -24.73,-29.75 -42.72,-39.27 -17.81,-9.69 -40.31,-14.53 -67.11,-14.53 -24.74,0 -46.01,4.33 -63.83,13.15 -17.82,8.82 -32.35,21.28 -43.94,37.36 -11.58,16.09 -20.06,35.11 -25.6,57.08 -5.71,21.97 -8.47,46.02 -8.47,71.96 0,25.08 2.25,48.6 6.92,70.58 4.5,21.96 12.11,41.16 22.83,57.6 10.72,16.25 25.08,29.4 42.89,38.92 18,9.68 40.49,14.52 67.29,14.52 24.39,0 45.5,-4.32 63.49,-13.14 17.98,-8.82 32.69,-21.11 44.28,-37.02 11.58,-15.91 20.06,-34.94 25.42,-56.9 5.37,-21.98 8.14,-46.19 8.14,-72.49zm186.29 393.7c0,2.42 -0.52,4.33 -1.56,5.87 -1.04,1.39 -2.94,2.77 -5.71,3.81 -2.94,0.86 -6.57,1.73 -10.89,2.42 -4.32,0.69 -9.69,1.04 -16.09,1.04 -7.09,0 -12.97,-0.35 -17.47,-1.04 -4.5,-0.69 -8.12,-1.56 -11.06,-2.42 -2.77,-1.04 -4.85,-2.42 -6.06,-3.81 -1.21,-1.54 -1.73,-3.45 -1.73,-5.87l0 -202.73c0,-8.48 1.38,-14.01 4.15,-16.78 2.6,-2.59 7.95,-3.97 15.74,-3.97l32.52 0c12.62,-15.23 24.39,-32.53 35.11,-52.24 10.9,-19.55 21.1,-44.11 30.45,-73.7 9.34,-29.57 17.82,-65.2 25.6,-106.71 7.78,-41.52 15.04,-91.16 21.44,-148.94 0.7,-4.67 1.56,-8.99 2.77,-12.97 1.21,-3.81 2.94,-6.92 5.02,-9.16 2.25,-2.08 4.84,-3.81 7.96,-5.19 2.94,-1.39 6.57,-2.08 10.55,-2.08l253.06 0c8.13,0 14.36,2.42 18.85,7.27 4.67,5 6.92,12.44 6.92,22.65l0 381.07 63.31 0c7.1,0 12.11,1.38 15.23,3.97 2.94,2.77 4.49,8.3 4.49,16.78l0 202.73c0,2.42 -0.51,4.33 -1.55,5.87 -1.04,1.39 -2.94,2.77 -5.71,3.81 -2.94,0.86 -6.75,1.73 -11.42,2.42 -4.67,0.69 -10.21,1.04 -16.61,1.04 -6.75,0 -12.27,-0.35 -16.6,-1.04 -4.32,-0.69 -7.96,-1.56 -10.9,-2.42 -2.77,-1.04 -4.84,-2.42 -6.05,-3.81 -1.21,-1.54 -1.73,-3.45 -1.73,-5.87l0 -152.91 -412.03 0 0 152.91zm315.5 -565.98l-144.26 0c-7.08,55.18 -14.35,101.71 -21.96,139.59 -7.61,37.88 -15.74,69.72 -24.39,95.83 -8.65,26.12 -17.64,47.23 -27.16,63.66 -9.34,16.43 -19.2,30.96 -29.4,43.42l247.17 0 0 -342.5zm665.43 400.96c0,2.42 -0.69,4.67 -2.07,6.57 -1.39,2.08 -3.46,3.63 -6.58,4.84 -2.93,1.22 -7.25,2.08 -12.62,2.77 -5.36,0.7 -12.11,1.04 -20.24,1.04 -8.13,0 -14.87,-0.34 -20.23,-1.04 -5.36,-0.69 -9.86,-1.55 -13.15,-2.77 -3.46,-1.21 -5.71,-2.76 -7.09,-4.84 -1.39,-2.08 -2.08,-4.15 -2.08,-6.57l0 -262.58c0,-13.32 0.35,-26.63 1.04,-40.47 0.69,-13.67 1.56,-26.98 2.59,-40.3 -7.78,13.66 -16.43,26.8 -25.59,39.95 -9.34,12.98 -18.69,25.94 -28.03,38.75l-193.21 264.65c-2.42,2.76 -4.49,5.01 -6.4,7.09 -1.9,2.08 -4.32,3.63 -7.09,4.84 -2.94,1.22 -6.57,2.08 -11.07,2.6 -4.33,0.52 -9.86,0.69 -16.27,0.69 -7.43,0 -13.65,-0.34 -18.33,-1.04 -4.84,-0.69 -8.65,-1.55 -11.41,-2.77 -2.95,-1.21 -5.02,-2.76 -6.23,-4.84 -1.21,-2.08 -1.73,-4.15 -1.73,-6.57l0 -457.35c0,-2.42 0.52,-4.49 1.73,-6.56 1.21,-2.08 3.46,-3.81 6.74,-5.02 3.12,-1.39 7.44,-2.42 12.98,-2.94 5.36,-0.52 11.94,-0.69 19.89,-0.69 16.26,0 27.51,1.21 33.56,3.8 6.05,2.6 9.16,6.4 9.16,11.41l0 264.14c0,13.14 -0.34,26.29 -1.04,39.26 -0.69,13.14 -1.55,25.95 -2.59,38.92 7.78,-12.97 15.74,-25.43 23.7,-37.88 7.79,-12.28 16.44,-24.39 25.42,-36.16l195.81 -268.28c1.91,-2.77 3.98,-5.01 6.23,-6.91 2.25,-1.9 4.85,-3.46 8.13,-4.5 3.12,-1.21 6.92,-1.9 11.41,-2.42 4.33,-0.52 10.04,-0.87 17.13,-0.87 7.09,0 13.15,0.35 17.99,0.87 5.02,0.52 8.83,1.38 11.76,2.77 2.77,1.38 4.84,2.94 6.05,5.01 1.22,2.07 1.73,4.32 1.73,7.09l0 456.31z"></path> <path class="fil2" d="M9020.5 3405.26c0,35.81 -5.19,68.85 -15.75,98.77 -10.38,30.1 -25.78,56.39 -46.18,78.7 -20.42,22.32 -45.67,40.14 -75.59,53.62 -30.1,13.5 -64.52,21.28 -103.27,23.36l0 159.13c0,2.77 -0.69,5.02 -2.07,7.09 -1.39,2.08 -3.46,3.81 -6.58,5.2 -3.11,1.21 -7.26,2.24 -12.8,2.94 -5.36,0.69 -12.1,1.03 -20.23,1.03 -8.31,0 -15.05,-0.34 -20.42,-1.03 -5.53,-0.7 -9.86,-1.73 -12.96,-2.94 -3.29,-1.39 -5.54,-3.12 -6.92,-5.2 -1.39,-2.07 -2.08,-4.32 -2.08,-7.09l0 -159.13c-39.61,-1.73 -74.39,-8.48 -104.48,-20.59 -30.09,-11.93 -55.18,-28.54 -75.41,-49.64 -20.42,-21.1 -35.46,-46.53 -45.67,-76.28 -10.21,-29.75 -15.22,-63.14 -15.22,-100.33 0,-35.8 5.19,-68.84 15.74,-98.77 10.38,-30.09 25.94,-56.38 46.36,-78.7 20.4,-22.31 45.66,-40.13 75.76,-53.45 30.09,-13.31 64.35,-21.1 102.92,-23.52l0 -192.01c0,-2.24 0.69,-4.49 2.08,-6.4 1.38,-2.07 3.63,-3.8 6.92,-5.19 3.1,-1.21 7.43,-2.25 12.96,-2.94 5.37,-0.69 12.11,-1.04 20.42,-1.04 8.13,0 14.87,0.35 20.23,1.04 5.54,0.69 9.69,1.73 12.8,2.94 3.12,1.39 5.19,3.12 6.58,5.19 1.38,1.91 2.07,4.16 2.07,6.4l0 192.01c40.13,2.07 75.24,9.17 105.18,21.27 30.09,12.11 55.17,28.89 75.24,49.99 20.06,21.11 35.11,46.53 45.14,76.29 10.21,29.75 15.23,62.78 15.23,99.28zm-87.18 5.88c0,-55.17 -11.94,-98.08 -35.99,-128.86 -24.04,-30.79 -63.3,-48.61 -117.62,-53.28l0 361.17c49.99,-3.12 88.05,-19.54 114.34,-49.65 26.12,-30.09 39.27,-73.33 39.27,-129.38zm-237.67 -182.14c-49.82,2.77 -87.87,19.03 -114.17,48.95 -26.29,29.93 -39.44,73.35 -39.44,130.08 0,26.81 2.77,50.85 8.31,72.31 5.54,21.44 14.53,39.95 26.81,55.35 12.28,15.39 28.2,27.67 47.74,37.01 19.55,9.35 43.07,15.05 70.75,17.47l0 -361.17zm849.99 409.26c0,2.42 -0.69,4.67 -2.07,6.57 -1.39,2.08 -3.46,3.63 -6.58,4.84 -2.93,1.22 -7.25,2.08 -12.62,2.77 -5.36,0.7 -12.11,1.04 -20.24,1.04 -8.13,0 -14.87,-0.34 -20.23,-1.04 -5.36,-0.69 -9.86,-1.55 -13.15,-2.77 -3.46,-1.21 -5.71,-2.76 -7.09,-4.84 -1.39,-2.08 -2.08,-4.15 -2.08,-6.57l0 -262.58c0,-13.32 0.35,-26.63 1.04,-40.47 0.69,-13.67 1.56,-26.98 2.59,-40.3 -7.78,13.66 -16.43,26.8 -25.59,39.95 -9.35,12.98 -18.69,25.94 -28.03,38.75l-193.21 264.65c-2.42,2.76 -4.49,5.01 -6.4,7.09 -1.9,2.08 -4.32,3.63 -7.09,4.84 -2.94,1.22 -6.58,2.08 -11.07,2.6 -4.33,0.52 -9.87,0.69 -16.27,0.69 -7.43,0 -13.66,-0.34 -18.33,-1.04 -4.84,-0.69 -8.65,-1.55 -11.42,-2.77 -2.94,-1.21 -5.01,-2.76 -6.22,-4.84 -1.21,-2.08 -1.73,-4.15 -1.73,-6.57l0 -457.35c0,-2.42 0.52,-4.49 1.73,-6.56 1.21,-2.08 3.46,-3.81 6.74,-5.02 3.12,-1.39 7.44,-2.42 12.98,-2.94 5.36,-0.52 11.94,-0.69 19.89,-0.69 16.26,0 27.51,1.21 33.56,3.8 6.05,2.6 9.16,6.4 9.16,11.41l0 264.14c0,13.14 -0.35,26.29 -1.04,39.26 -0.69,13.14 -1.55,25.95 -2.59,38.92 7.78,-12.97 15.74,-25.43 23.7,-37.88 7.79,-12.28 16.44,-24.39 25.42,-36.16l195.81 -268.28c1.91,-2.77 3.98,-5.01 6.23,-6.91 2.25,-1.9 4.85,-3.46 8.13,-4.5 3.12,-1.21 6.92,-1.9 11.41,-2.42 4.33,-0.52 10.04,-0.87 17.13,-0.87 7.09,0 13.15,0.35 17.99,0.87 5.02,0.52 8.83,1.38 11.76,2.77 2.77,1.38 4.84,2.94 6.05,5.01 1.22,2.07 1.73,4.32 1.73,7.09l0 456.31zm526.72 3.11c0,1.9 -0.52,3.81 -1.73,5.19 -1.21,1.56 -3.46,2.94 -6.58,3.81 -3.28,1.04 -7.44,1.9 -12.79,2.42 -5.19,0.52 -11.94,0.69 -20.07,0.69 -9.34,0 -17.13,-0.34 -23.01,-1.04 -5.87,-0.69 -10.72,-1.55 -14.52,-2.77 -3.64,-1.21 -6.4,-2.76 -7.96,-4.49 -1.73,-1.91 -2.94,-3.98 -3.64,-6.4l-48.43 -118.14c-6.05,-15.23 -12.46,-28.2 -19.37,-39.27 -6.92,-10.9 -14.88,-19.89 -24.04,-26.64 -9,-6.75 -19.2,-11.58 -30.79,-14.7 -11.42,-2.94 -24.4,-4.49 -39.27,-4.49l-35.29 0 0 205.31c0,1.73 -0.86,3.29 -2.59,5.02 -1.73,1.73 -4.15,3.11 -7.61,3.98 -3.46,1.04 -7.78,1.9 -13.32,2.59 -5.36,0.7 -11.59,1.04 -18.68,1.04 -7.26,0 -13.49,-0.34 -18.85,-1.04 -5.54,-0.69 -9.86,-1.55 -13.33,-2.59 -3.46,-0.87 -5.88,-2.25 -7.43,-3.98 -1.56,-1.73 -2.25,-3.46 -2.25,-5.02l0 -463.57c0,-1.55 0.69,-3.28 2.25,-4.66 1.55,-1.56 3.97,-2.95 7.43,-3.81 3.47,-1.04 7.79,-1.9 13.33,-2.42 5.36,-0.52 11.59,-0.69 18.85,-0.69 7.09,0 13.32,0.17 18.68,0.69 5.54,0.52 9.86,1.38 13.32,2.42 3.46,0.86 5.88,2.25 7.61,3.81 1.73,1.38 2.59,3.11 2.59,4.83l0 191.66 35.29 0c12.63,0 24.39,-1.39 34.94,-4.33 10.56,-2.94 20.24,-7.61 28.89,-14.17 8.82,-6.75 16.61,-15.23 23.35,-25.78 6.92,-10.56 13.32,-23.18 19.02,-38.06l42.21 -105.34c0.69,-2.77 1.9,-5.01 3.46,-7.08 1.73,-2.08 4.33,-3.81 7.61,-5.02 3.46,-1.39 7.96,-2.42 13.5,-2.94 5.53,-0.52 12.97,-0.69 22.13,-0.69 7.96,0 14.71,0.17 19.9,0.69 5.19,0.52 9.34,1.38 12.28,2.42 2.77,0.86 4.67,2.25 5.7,3.81 1.04,1.38 1.56,3.11 1.56,4.66 0,3.11 -0.35,6.4 -1.21,9.69 -0.87,3.46 -2.07,7.26 -3.8,11.76l-43.59 100.5c-6.74,16.95 -14.01,31.13 -21.97,42.73 -7.96,11.41 -15.92,21.09 -24.04,28.71 -7.96,7.61 -16.26,13.49 -24.74,17.82 -8.3,4.15 -16.43,7.44 -24.21,9.86l0 1.04c11.75,3.97 22.65,8.81 32.69,14.52 10.03,5.88 19.19,12.97 27.84,21.28 8.65,8.48 16.61,18.5 24.05,30.27 7.44,11.59 14.35,24.91 20.93,40.13l50.16 115.55c1.39,2.25 2.25,4.5 2.94,6.57 0.69,1.9 1.21,3.97 1.56,5.7 0.35,1.9 0.69,3.46 0.86,4.67 0.18,1.21 0.18,2.25 0.18,3.29zm438.15 -3.11c0,3.98 -1.39,7.09 -3.98,9.17 -2.77,2.07 -6.4,3.46 -11.25,4.49 -4.67,1.04 -11.59,1.56 -20.76,1.56 -8.64,0 -15.73,-0.52 -20.92,-1.56 -5.19,-1.03 -9,-2.42 -11.42,-4.49 -2.42,-2.08 -3.63,-5.02 -3.63,-9.17l0 -45.67c-19.89,21.28 -42.04,37.88 -66.59,49.65 -24.57,11.59 -50.51,17.47 -77.85,17.47 -24.04,0 -45.84,-3.11 -65.21,-9.34 -19.37,-6.23 -35.97,-15.4 -49.64,-27.16 -13.67,-11.76 -24.39,-26.47 -32,-43.59 -7.61,-17.3 -11.42,-36.85 -11.42,-58.81 0,-25.78 5.19,-48.09 15.75,-66.95 10.37,-19.02 25.42,-34.76 45.14,-47.22 19.54,-12.44 43.59,-21.96 71.96,-28.19 28.36,-6.23 60.37,-9.34 95.83,-9.34l62.96 0 0 -35.63c0,-17.48 -1.9,-33.04 -5.53,-46.71 -3.81,-13.49 -9.69,-24.73 -18,-33.72 -8.3,-9 -19.03,-15.75 -32.17,-20.25 -13.15,-4.67 -29.41,-6.92 -48.6,-6.92 -20.59,0 -39.1,2.43 -55.36,7.44 -16.43,5.02 -30.78,10.38 -43.07,16.44 -12.28,6.05 -22.66,11.42 -30.96,16.44 -8.13,5 -14.36,7.43 -18.34,7.43 -2.77,0 -5.19,-0.7 -7.09,-2.08 -2.08,-1.21 -3.81,-3.29 -5.36,-6.05 -1.56,-2.59 -2.6,-6.05 -3.29,-10.2 -0.69,-4.33 -1.04,-8.83 -1.04,-14.02 0,-8.3 0.52,-15.05 1.73,-19.88 1.21,-4.85 4.15,-9.52 8.65,-13.85 4.5,-4.32 12.46,-9.51 23.53,-15.57 11.06,-5.88 24.04,-11.42 38.57,-16.42 14.36,-4.85 30.27,-9 47.57,-12.29 17.12,-3.28 34.59,-4.84 52.07,-4.84 32.69,0 60.53,3.63 83.54,11.07 23,7.43 41.52,18.5 55.7,32.86 14.18,14.36 24.39,32.17 30.79,53.45 6.4,21.28 9.69,46.19 9.69,74.55l0 307.9zm-83.03 -208.95l-71.44 0c-22.83,0 -42.73,1.9 -59.68,5.88 -16.77,3.81 -30.79,9.69 -42.03,17.29 -11.07,7.61 -19.2,16.61 -24.56,27.34 -5.19,10.72 -7.79,23 -7.79,36.84 0,23.69 7.44,42.55 22.49,56.56 15.05,14.01 35.98,21.1 63.13,21.1 21.8,0 42.21,-5.54 60.89,-16.77 18.68,-11.07 38.4,-28.2 58.99,-51.2l0 -97.04zm706.77 376.05c-0.34,3.62 -3.29,6.39 -8.99,8.29 -5.71,1.9 -14.36,2.77 -25.77,2.77 -12.46,0 -21.46,-1.04 -27.17,-3.11 -5.71,-1.91 -8.65,-4.68 -8.65,-7.95l0 -154.99 -373.61 0c-8.14,0 -14.54,-2.43 -19.04,-7.44 -4.67,-4.85 -6.92,-12.11 -6.92,-21.97l0 -439.53c0,-2.77 0.52,-5.01 1.73,-6.91 1.22,-1.73 3.46,-3.46 6.75,-5.02 3.12,-1.56 7.44,-2.59 12.98,-3.11 5.36,-0.52 12.11,-0.69 20.4,-0.69 8.48,0 15.4,0.17 20.76,0.69 5.54,0.52 9.69,1.55 12.81,3.11 3.11,1.56 5.18,3.29 6.56,5.02 1.39,1.9 2.08,4.14 2.08,6.91l0 397.33 217.95 0 0 -397.33c0,-2.77 0.7,-5.01 2.08,-6.91 1.38,-1.73 3.62,-3.46 6.74,-5.02 3.28,-1.56 7.61,-2.59 12.97,-3.11 5.37,-0.52 12.11,-0.69 20.25,-0.69 8.46,0 15.38,0.17 20.75,0.69 5.36,0.52 9.69,1.55 12.63,3.11 3.11,1.56 5.19,3.29 6.57,5.02 1.39,1.9 2.08,4.14 2.08,6.91l0 397.33 63.65 0c8.13,0 13.66,1.56 16.26,4.49 2.77,3.11 4.15,8.48 4.15,16.26l0 205.85zm497.65 -167.1c0,2.42 -0.69,4.67 -2.08,6.57 -1.38,2.08 -3.46,3.63 -6.57,4.84 -2.93,1.22 -7.26,2.08 -12.62,2.77 -5.36,0.7 -12.11,1.04 -20.24,1.04 -8.14,0 -14.87,-0.34 -20.24,-1.04 -5.36,-0.69 -9.86,-1.55 -13.15,-2.77 -3.46,-1.21 -5.7,-2.76 -7.09,-4.84 -1.38,-2.08 -2.07,-4.15 -2.07,-6.57l0 -262.58c0,-13.32 0.34,-26.63 1.03,-40.47 0.7,-13.67 1.56,-26.98 2.6,-40.3 -7.79,13.66 -16.44,26.8 -25.6,39.95 -9.34,12.98 -18.68,25.94 -28.03,38.75l-193.2 264.65c-2.42,2.76 -4.5,5.01 -6.4,7.09 -1.91,2.08 -4.33,3.63 -7.1,4.84 -2.94,1.22 -6.57,2.08 -11.07,2.6 -4.32,0.52 -9.86,0.69 -16.26,0.69 -7.43,0 -13.66,-0.34 -18.33,-1.04 -4.85,-0.69 -8.65,-1.55 -11.42,-2.77 -2.94,-1.21 -5.02,-2.76 -6.23,-4.84 -1.21,-2.08 -1.73,-4.15 -1.73,-6.57l0 -457.35c0,-2.42 0.52,-4.49 1.73,-6.56 1.21,-2.08 3.46,-3.81 6.75,-5.02 3.11,-1.39 7.44,-2.42 12.98,-2.94 5.36,-0.52 11.93,-0.69 19.88,-0.69 16.26,0 27.51,1.21 33.57,3.8 6.04,2.6 9.16,6.4 9.16,11.41l0 264.14c0,13.14 -0.35,26.29 -1.04,39.26 -0.69,13.14 -1.56,25.95 -2.6,38.92 7.79,-12.97 15.75,-25.43 23.71,-37.88 7.78,-12.28 16.43,-24.39 25.42,-36.16l195.81 -268.28c1.9,-2.77 3.98,-5.01 6.23,-6.91 2.25,-1.9 4.84,-3.46 8.13,-4.5 3.11,-1.21 6.92,-1.9 11.41,-2.42 4.32,-0.52 10.03,-0.87 17.13,-0.87 7.09,0 13.14,0.35 17.99,0.87 5.02,0.52 8.82,1.38 11.75,2.77 2.77,1.38 4.85,2.94 6.06,5.01 1.21,2.07 1.73,4.32 1.73,7.09l0 456.31zm560.96 0c0,2.42 -0.69,4.67 -2.08,6.57 -1.38,2.08 -3.46,3.63 -6.57,4.84 -2.93,1.22 -7.26,2.08 -12.62,2.77 -5.36,0.7 -12.11,1.04 -20.24,1.04 -8.14,0 -14.87,-0.34 -20.24,-1.04 -5.36,-0.69 -9.86,-1.55 -13.15,-2.77 -3.46,-1.21 -5.7,-2.76 -7.09,-4.84 -1.38,-2.08 -2.07,-4.15 -2.07,-6.57l0 -262.58c0,-13.32 0.34,-26.63 1.03,-40.47 0.7,-13.67 1.56,-26.98 2.6,-40.3 -7.79,13.66 -16.44,26.8 -25.6,39.95 -9.34,12.98 -18.68,25.94 -28.03,38.75l-193.2 264.65c-2.42,2.76 -4.5,5.01 -6.4,7.09 -1.91,2.08 -4.33,3.63 -7.1,4.84 -2.94,1.22 -6.57,2.08 -11.07,2.6 -4.32,0.52 -9.86,0.69 -16.26,0.69 -7.43,0 -13.66,-0.34 -18.33,-1.04 -4.85,-0.69 -8.65,-1.55 -11.42,-2.77 -2.94,-1.21 -5.02,-2.76 -6.23,-4.84 -1.21,-2.08 -1.73,-4.15 -1.73,-6.57l0 -457.35c0,-2.42 0.52,-4.49 1.73,-6.56 1.21,-2.08 3.46,-3.81 6.75,-5.02 3.11,-1.39 7.44,-2.42 12.98,-2.94 5.36,-0.52 11.93,-0.69 19.88,-0.69 16.26,0 27.51,1.21 33.57,3.8 6.04,2.6 9.16,6.4 9.16,11.41l0 264.14c0,13.14 -0.35,26.29 -1.04,39.26 -0.69,13.14 -1.56,25.95 -2.6,38.92 7.79,-12.97 15.75,-25.43 23.71,-37.88 7.78,-12.28 16.43,-24.39 25.42,-36.16l195.81 -268.28c1.9,-2.77 3.98,-5.01 6.23,-6.91 2.25,-1.9 4.84,-3.46 8.13,-4.5 3.11,-1.21 6.92,-1.9 11.41,-2.42 4.32,-0.52 10.03,-0.87 17.13,-0.87 7.09,0 13.14,0.35 17.99,0.87 5.02,0.52 8.82,1.38 11.75,2.77 2.77,1.38 4.85,2.94 6.06,5.01 1.21,2.07 1.73,4.32 1.73,7.09l0 456.31zm-5676.17 874.11c0,2.76 -0.69,5.01 -2.08,6.92 -1.38,1.73 -3.46,3.46 -6.57,4.84 -2.94,1.21 -7.27,2.25 -12.63,2.94 -5.36,0.69 -12.11,1.04 -20.23,1.04 -8.48,0 -15.4,-0.35 -20.77,-1.04 -5.36,-0.69 -9.68,-1.73 -12.97,-2.94 -3.12,-1.38 -5.35,-3.11 -6.74,-4.84 -1.38,-1.91 -2.08,-4.16 -2.08,-6.92l0 -398.36 -216.91 0 0 398.36c0,2.76 -0.69,5.01 -2.08,6.92 -1.38,1.73 -3.62,3.46 -6.91,4.84 -3.11,1.21 -7.44,2.25 -12.98,2.94 -5.36,0.69 -12.11,1.04 -20.24,1.04 -8.29,0 -15.04,-0.35 -20.4,-1.04 -5.54,-0.69 -9.87,-1.73 -12.98,-2.94 -3.29,-1.38 -5.54,-3.11 -6.75,-4.84 -1.21,-1.91 -1.73,-4.16 -1.73,-6.92l0 -439.01c0,-10.21 2.25,-17.65 6.92,-22.65 4.5,-4.85 10.9,-7.27 18.86,-7.27l334.01 0c7.96,0 14.36,2.42 18.68,7.27 4.33,5 6.58,12.44 6.58,22.65l0 439.01zm578.6 -233.52c0,37.2 -4.85,71.44 -14.71,102.75 -9.69,31.13 -24.38,58.12 -43.76,80.78 -19.37,22.66 -43.76,40.3 -72.82,52.93 -29.24,12.63 -63.14,19.03 -101.54,19.03 -37.53,0 -70.22,-5.54 -98.08,-16.78 -27.84,-11.08 -51.03,-27.33 -69.53,-48.61 -18.51,-21.27 -32.35,-47.22 -41.51,-77.49 -9.17,-30.44 -13.67,-64.87 -13.67,-103.44 0,-37.19 4.85,-71.44 14.36,-102.57 9.68,-31.31 24.21,-58.29 43.59,-80.96 19.37,-22.65 43.59,-40.13 72.65,-52.76 29.05,-12.44 62.96,-18.67 101.71,-18.67 37.53,0 70.22,5.53 98.08,16.78 27.84,11.06 51.02,27.33 69.53,48.6 18.51,21.28 32.51,47.05 41.86,77.5 9.17,30.44 13.84,64.68 13.84,102.91zm-87.18 5.36c0,-24.73 -2.25,-48.08 -6.92,-70.05 -4.5,-21.97 -12.11,-41.16 -22.67,-57.77 -10.37,-16.6 -24.73,-29.75 -42.72,-39.27 -17.81,-9.69 -40.3,-14.53 -67.11,-14.53 -24.74,0 -46.01,4.32 -63.83,13.15 -17.81,8.82 -32.34,21.28 -43.94,37.36 -11.58,16.09 -20.06,35.11 -25.59,57.08 -5.71,21.97 -8.48,46.01 -8.48,71.96 0,25.08 2.25,48.6 6.92,70.58 4.5,21.96 12.11,41.16 22.83,57.6 10.72,16.25 25.08,29.4 42.9,38.92 17.99,9.68 40.48,14.52 67.29,14.52 24.38,0 45.49,-4.33 63.48,-13.14 17.99,-8.82 32.69,-21.11 44.28,-37.02 11.59,-15.91 20.06,-34.94 25.43,-56.91 5.36,-21.97 8.13,-46.18 8.13,-72.48zm585.69 96.87c0,24.05 -4.5,45.49 -13.67,64.18 -9.17,18.85 -22.65,34.42 -40.65,47.22 -17.81,12.62 -40.13,22.31 -66.76,28.88 -26.82,6.58 -57.95,9.86 -93.41,9.86 -11.07,0 -21.97,0 -32.35,-0.17 -10.54,-0.17 -20.75,-0.52 -30.44,-1.04 -9.86,-0.52 -19.54,-1.21 -29.23,-1.9 -9.52,-0.52 -19.2,-1.38 -28.55,-2.42 -13.65,-1.73 -23.52,-6.23 -29.92,-13.5 -6.4,-7.26 -9.69,-17.98 -9.69,-32.17l0 -392.65c0,-13.84 3.12,-24.56 9.35,-32 6.22,-7.43 15.91,-11.76 28.71,-13.14 8.82,-1.04 18.16,-1.91 28.2,-2.6 9.86,-0.52 20.06,-1.21 30.61,-1.73 10.55,-0.52 21.28,-0.86 32.52,-1.21 11.07,-0.34 22.32,-0.52 33.91,-0.52 32.86,0 61.22,2.77 85.1,8.13 24.04,5.37 43.94,13.32 59.84,23.7 15.92,10.55 27.68,23.35 35.3,38.57 7.6,15.22 11.41,32.52 11.41,52.07 0,25.6 -6.91,47.56 -20.58,65.9 -13.67,18.16 -33.9,31.14 -60.55,38.92 33.38,7.09 58.64,20.75 75.6,40.99 16.77,20.41 25.25,45.84 25.25,76.63zm-100.67 -211.54c0,-11.08 -2.08,-20.94 -6.06,-29.75 -4.15,-8.65 -10.72,-16.09 -20.06,-22.15 -9.34,-6.05 -21.45,-10.55 -36.15,-13.67 -14.7,-2.94 -32.53,-4.49 -53.62,-4.49 -15.92,0 -30.45,0.34 -43.59,1.21 -13.32,0.86 -24.4,1.9 -33.57,2.76l0 141.33 85.29 0c34.94,0 61.57,-6.41 80.08,-19.37 18.51,-12.98 27.68,-31.66 27.68,-55.87zm14.53 212.75c0,-13.49 -2.42,-25.42 -7.09,-35.63 -4.68,-10.38 -12.29,-18.86 -22.49,-25.6 -10.38,-6.74 -23.53,-11.76 -39.62,-15.22 -15.9,-3.29 -34.93,-5.02 -56.9,-5.02l-81.48 0 0 161.56c6.41,1.03 13.15,1.73 20.07,2.24 6.92,0.52 14.02,1.04 21.28,1.56 7.26,0.52 14.35,0.87 21.62,1.21 7.27,0.35 14.01,0.52 20.07,0.52 21.96,0 40.65,-1.9 56.21,-5.88 15.57,-3.81 28.37,-9.51 38.75,-16.95 10.2,-7.44 17.81,-16.43 22.49,-26.99 4.67,-10.71 7.09,-22.65 7.09,-35.8zm596.76 -117.96c0,13.14 -3.28,22.48 -9.86,28.19 -6.57,5.53 -14.19,8.3 -22.66,8.3l-299.59 0c0,25.42 2.59,48.26 7.61,68.49 5.02,20.42 13.5,37.89 25.42,52.42 11.77,14.53 27.17,25.6 46.02,33.39 19.03,7.77 42.2,11.75 69.54,11.75 21.61,0 40.99,-1.73 57.76,-5.36 16.96,-3.46 31.66,-7.43 43.94,-11.75 12.28,-4.33 22.49,-8.31 30.45,-11.77 7.96,-3.63 13.84,-5.36 17.98,-5.36 2.42,0 4.5,0.52 6.4,1.73 1.73,1.21 3.29,2.94 4.15,5.36 1.04,2.25 1.91,5.54 2.43,9.69 0.52,4.32 0.69,9.33 0.69,15.39 0,4.32 -0.17,8.13 -0.52,11.42 -0.35,3.11 -0.69,6.05 -1.21,8.47 -0.52,2.6 -1.39,4.85 -2.6,6.92 -1.21,1.91 -2.59,3.81 -4.49,5.71 -1.91,1.91 -7.44,4.85 -16.43,8.99 -9.17,4.33 -20.94,8.31 -35.47,12.46 -14.52,3.98 -31.3,7.61 -50.33,10.72 -19.03,3.29 -39.27,4.85 -60.89,4.85 -37.53,0 -70.23,-5.19 -98.42,-15.75 -28.19,-10.38 -51.89,-25.94 -71.09,-46.53 -19.2,-20.75 -33.74,-46.53 -43.41,-77.66 -9.87,-30.96 -14.71,-67.12 -14.71,-108.46 0,-39.09 5.02,-74.37 15.22,-105.68 10.03,-31.14 24.74,-57.77 43.77,-79.57 19.02,-21.79 42.2,-38.4 69.18,-50.16 26.99,-11.59 57.26,-17.47 90.64,-17.47 35.8,0 66.25,5.71 91.33,17.3 25.26,11.41 45.84,26.98 62.1,46.35 16.08,19.37 28.02,42.21 35.63,68.5 7.62,26.11 11.42,54.14 11.42,83.89l0 15.23zm-84.06 -24.74c1.04,-43.94 -8.65,-78.53 -29.24,-103.61 -20.58,-25.09 -50.86,-37.54 -91.16,-37.54 -20.75,0 -38.92,3.8 -54.49,11.59 -15.56,7.78 -28.53,18.17 -39.09,31.14 -10.54,12.79 -18.67,27.85 -24.38,44.8 -5.71,17.12 -9,34.94 -9.69,53.62l248.05 0zm202.2 438.32c0,2.42 -0.52,4.32 -1.56,5.87 -1.03,1.39 -2.94,2.77 -5.71,3.81 -2.94,0.86 -6.57,1.73 -10.89,2.42 -4.32,0.69 -9.68,1.04 -16.09,1.04 -7.09,0 -12.97,-0.35 -17.47,-1.04 -4.5,-0.69 -8.12,-1.56 -11.06,-2.42 -2.77,-1.04 -4.85,-2.42 -6.06,-3.81 -1.21,-1.55 -1.73,-3.45 -1.73,-5.87l0 -202.73c0,-8.48 1.39,-14.02 4.15,-16.78 2.6,-2.59 7.95,-3.97 15.74,-3.97l32.52 0c12.62,-15.23 24.39,-32.53 35.12,-52.24 10.9,-19.55 21.09,-44.11 30.44,-73.7 9.34,-29.57 17.82,-65.2 25.6,-106.72 7.78,-41.51 15.04,-91.15 21.45,-148.93 0.69,-4.67 1.55,-9 2.76,-12.97 1.21,-3.81 2.94,-6.93 5.02,-9.16 2.25,-2.08 4.84,-3.81 7.96,-5.2 2.94,-1.38 6.57,-2.07 10.55,-2.07l253.06 0c8.13,0 14.36,2.42 18.85,7.27 4.67,5 6.92,12.44 6.92,22.65l0 381.07 63.31 0c7.1,0 12.11,1.38 15.23,3.97 2.94,2.76 4.49,8.3 4.49,16.78l0 202.73c0,2.42 -0.51,4.32 -1.55,5.87 -1.04,1.39 -2.94,2.77 -5.71,3.81 -2.94,0.86 -6.75,1.73 -11.42,2.42 -4.67,0.69 -10.21,1.04 -16.61,1.04 -6.75,0 -12.27,-0.35 -16.6,-1.04 -4.32,-0.69 -7.96,-1.56 -10.9,-2.42 -2.77,-1.04 -4.84,-2.42 -6.05,-3.81 -1.21,-1.55 -1.73,-3.45 -1.73,-5.87l0 -152.91 -412.03 0 0 152.91zm315.51 -565.98l-144.27 0c-7.08,55.18 -14.35,101.71 -21.96,139.59 -7.61,37.88 -15.74,69.72 -24.39,95.83 -8.65,26.12 -17.64,47.22 -27.16,63.66 -9.34,16.43 -19.2,30.96 -29.4,43.42l247.18 0 0 -342.5zm638.1 152.4c0,13.14 -3.29,22.48 -9.86,28.19 -6.58,5.53 -14.19,8.3 -22.67,8.3l-299.59 0c0,25.42 2.6,48.26 7.62,68.49 5.01,20.42 13.49,37.89 25.42,52.42 11.77,14.53 27.16,25.6 46.01,33.39 19.03,7.77 42.21,11.75 69.54,11.75 21.62,0 41,-1.73 57.77,-5.36 16.95,-3.46 31.66,-7.43 43.93,-11.75 12.29,-4.33 22.5,-8.31 30.45,-11.77 7.96,-3.63 13.85,-5.36 17.99,-5.36 2.42,0 4.5,0.52 6.4,1.73 1.73,1.21 3.29,2.94 4.15,5.36 1.04,2.25 1.9,5.54 2.42,9.69 0.52,4.32 0.7,9.33 0.7,15.39 0,4.32 -0.18,8.13 -0.52,11.42 -0.35,3.11 -0.7,6.05 -1.21,8.47 -0.52,2.6 -1.39,4.85 -2.6,6.92 -1.21,1.91 -2.59,3.81 -4.5,5.71 -1.9,1.91 -7.44,4.85 -16.42,8.99 -9.17,4.33 -20.94,8.31 -35.47,12.46 -14.52,3.98 -31.31,7.61 -50.33,10.72 -19.03,3.29 -39.27,4.85 -60.89,4.85 -37.53,0 -70.23,-5.19 -98.42,-15.75 -28.19,-10.38 -51.9,-25.94 -71.09,-46.53 -19.21,-20.75 -33.74,-46.53 -43.42,-77.66 -9.86,-30.96 -14.7,-67.12 -14.7,-108.46 0,-39.09 5.01,-74.37 15.22,-105.68 10.03,-31.14 24.73,-57.77 43.76,-79.57 19.03,-21.79 42.21,-38.4 69.19,-50.16 26.99,-11.59 57.26,-17.47 90.64,-17.47 35.8,0 66.25,5.71 91.33,17.3 25.26,11.41 45.84,26.98 62.1,46.35 16.08,19.37 28.02,42.21 35.63,68.5 7.61,26.11 11.42,54.14 11.42,83.89l0 15.23zm-84.07 -24.74c1.04,-43.94 -8.65,-78.53 -29.23,-103.61 -20.58,-25.09 -50.86,-37.54 -91.16,-37.54 -20.75,0 -38.92,3.8 -54.49,11.59 -15.56,7.78 -28.54,18.17 -39.09,31.14 -10.55,12.79 -18.68,27.85 -24.39,44.8 -5.71,17.12 -8.99,34.94 -9.69,53.62l248.05 0z"></path> <path class="fil2" d="M9703.91 4512.37c0,2.76 -0.69,5.01 -2.08,6.92 -1.38,1.73 -3.45,3.46 -6.56,4.84 -3.11,1.21 -7.27,2.25 -12.8,2.94 -5.37,0.69 -12.11,1.04 -20.25,1.04 -8.64,0 -15.56,-0.35 -20.92,-1.04 -5.54,-0.69 -9.69,-1.73 -12.8,-2.94 -3.12,-1.38 -5.19,-3.11 -6.58,-4.84 -1.38,-1.91 -2.07,-4.16 -2.07,-6.92l0 -200.13 -231.44 0 0 200.13c0,2.76 -0.7,5.01 -2.08,6.92 -1.38,1.73 -3.45,3.46 -6.57,4.84 -3.11,1.21 -7.26,2.25 -12.8,2.94 -5.36,0.69 -12.28,1.04 -20.76,1.04 -8.29,0 -15.04,-0.35 -20.41,-1.04 -5.53,-0.69 -9.86,-1.73 -12.97,-2.94 -3.29,-1.38 -5.54,-3.11 -6.75,-4.84 -1.21,-1.91 -1.73,-4.16 -1.73,-6.92l0 -456.31c0,-2.77 0.52,-5.01 1.73,-6.91 1.21,-1.73 3.46,-3.46 6.75,-5.02 3.11,-1.56 7.44,-2.59 12.97,-3.11 5.37,-0.52 12.12,-0.7 20.41,-0.7 8.48,0 15.4,0.18 20.76,0.7 5.54,0.52 9.69,1.55 12.8,3.11 3.12,1.56 5.19,3.29 6.57,5.02 1.38,1.9 2.08,4.14 2.08,6.91l0 185.6 231.44 0 0 -185.6c0,-2.77 0.69,-5.01 2.07,-6.91 1.39,-1.73 3.46,-3.46 6.58,-5.02 3.11,-1.56 7.26,-2.59 12.8,-3.11 5.36,-0.52 12.28,-0.7 20.92,-0.7 8.14,0 14.88,0.18 20.25,0.7 5.53,0.52 9.69,1.55 12.8,3.11 3.11,1.56 5.18,3.29 6.56,5.02 1.39,1.9 2.08,4.14 2.08,6.91l0 456.31zm561.13 0.52c0,2.42 -0.69,4.67 -2.07,6.57 -1.39,2.08 -3.46,3.63 -6.58,4.84 -2.93,1.22 -7.25,2.08 -12.62,2.77 -5.36,0.69 -12.11,1.04 -20.24,1.04 -8.13,0 -14.87,-0.35 -20.23,-1.04 -5.37,-0.69 -9.86,-1.55 -13.15,-2.77 -3.46,-1.21 -5.71,-2.76 -7.09,-4.84 -1.39,-2.08 -2.08,-4.15 -2.08,-6.57l0 -262.58c0,-13.32 0.35,-26.63 1.04,-40.47 0.69,-13.67 1.55,-26.98 2.59,-40.3 -7.78,13.66 -16.43,26.8 -25.59,39.95 -9.35,12.98 -18.69,25.94 -28.03,38.75l-193.21 264.65c-2.42,2.76 -4.49,5.01 -6.4,7.09 -1.9,2.08 -4.32,3.63 -7.09,4.84 -2.94,1.21 -6.58,2.08 -11.07,2.6 -4.33,0.52 -9.87,0.69 -16.27,0.69 -7.43,0 -13.66,-0.35 -18.33,-1.04 -4.84,-0.69 -8.65,-1.55 -11.42,-2.77 -2.94,-1.21 -5.01,-2.76 -6.22,-4.84 -1.21,-2.08 -1.73,-4.15 -1.73,-6.57l0 -457.35c0,-2.42 0.52,-4.49 1.73,-6.56 1.21,-2.08 3.46,-3.81 6.74,-5.02 3.12,-1.39 7.44,-2.42 12.98,-2.94 5.36,-0.52 11.94,-0.7 19.89,-0.7 16.26,0 27.5,1.22 33.56,3.81 6.05,2.6 9.16,6.4 9.16,11.41l0 264.14c0,13.14 -0.35,26.29 -1.04,39.26 -0.69,13.14 -1.55,25.95 -2.59,38.92 7.78,-12.97 15.74,-25.43 23.7,-37.88 7.79,-12.28 16.44,-24.39 25.42,-36.16l195.81 -268.28c1.91,-2.77 3.98,-5.01 6.23,-6.91 2.25,-1.9 4.85,-3.46 8.13,-4.5 3.12,-1.21 6.92,-1.9 11.41,-2.42 4.33,-0.52 10.04,-0.87 17.13,-0.87 7.09,0 13.15,0.35 17.99,0.87 5.02,0.52 8.83,1.38 11.76,2.77 2.77,1.38 4.84,2.94 6.05,5.01 1.21,2.07 1.73,4.32 1.73,7.09l0 456.31zm491.43 -0.52c0,2.76 -0.52,5.01 -1.73,7.09 -1.21,2.08 -3.28,3.63 -6.4,4.84 -3.11,1.22 -7.27,2.08 -12.8,2.77 -5.37,0.69 -12.45,1.04 -21.27,1.04 -8.31,0 -15.05,-0.35 -20.42,-1.04 -5.53,-0.69 -9.86,-1.55 -12.97,-2.77 -3.28,-1.21 -5.53,-2.76 -6.74,-4.84 -1.21,-1.9 -1.73,-4.33 -1.73,-7.09l0 -191.82 -48.09 0c-20.93,0 -37.19,1.72 -48.95,5 -11.59,3.46 -22.15,9 -31.31,16.96 -9.34,7.96 -17.64,18.16 -25.08,30.44 -7.44,12.28 -14.54,27.33 -21.27,45.32l-37.03 89.08c-1.73,4.32 -3.46,7.96 -5.53,10.55 -2.07,2.77 -5.01,4.85 -8.82,6.4 -3.81,1.56 -8.82,2.6 -14.71,3.12 -5.88,0.52 -13.14,0.69 -21.96,0.69 -6.23,0 -11.94,-0.17 -16.78,-0.52 -4.84,-0.34 -9,-0.86 -12.46,-1.73 -3.28,-0.86 -5.88,-2.25 -7.44,-4.15 -1.73,-1.73 -2.59,-4.15 -2.59,-6.75 0,-2.42 0.86,-6.23 2.77,-11.42 1.9,-5.18 5.71,-14.35 11.42,-27.5l36.49 -85.62c9.52,-21.62 21.11,-40.3 34.94,-55.87 13.84,-15.74 29.76,-27.33 47.74,-34.77 -32.86,-6.05 -58.8,-19.2 -78.35,-39.26 -19.37,-20.24 -29.06,-46.88 -29.06,-80.09 0,-21.97 4.5,-41.85 13.67,-59.67 9.16,-17.82 22.48,-32.87 40.3,-45.15 17.64,-12.46 39.44,-21.97 65.38,-28.54 25.78,-6.57 55.35,-9.86 88.91,-9.86 7.96,0 17.47,0.17 28.03,0.52 10.71,0.35 21.61,0.86 32.86,1.56 11.42,0.69 22.31,1.38 33.03,2.25 10.56,0.86 19.73,1.55 27.5,2.24 10.21,1.04 17.82,4.68 22.84,11.24 5.02,6.4 7.61,14.36 7.61,23.7l0 433.65zm-84.06 -407.7c-12.11,-1.73 -24.57,-2.95 -37.36,-3.46 -12.63,-0.52 -24.4,-0.7 -35.3,-0.7 -22.82,0 -41.86,1.91 -57.07,5.89 -15.4,3.8 -27.51,9.51 -36.85,16.78 -9.16,7.26 -15.74,15.91 -19.54,25.77 -3.98,9.69 -5.89,20.59 -5.89,32.52 0,12.1 2.25,23.18 6.75,32.87 4.67,9.68 11.42,17.81 20.75,24.38 9.17,6.57 21.11,11.77 35.47,15.23 14.52,3.63 34.59,5.36 60.54,5.36l68.5 0 0 -154.64z"></path> </g> </g> </g> </svg> 