<svg id="Capa_1" xmlns="http://www.w3.org/2000/svg" viewBox="0 0 94 94"><style>.st0{fill:#f79403}</style><path class="st0" d="M47.1 37.6c5.2 0 9.4-4.2 9.4-9.5s-4.2-9.4-9.5-9.5c-5.3 0-9.5 4.3-9.5 9.6.1 5.3 4.3 9.4 9.6 9.4z"/><path class="st0" d="M89 0H5C2.2 0 0 2.2 0 5v84c0 2.8 2.2 5 5 5h84c2.8 0 5-2.2 5-5V5c0-2.8-2.2-5-5-5zM47.1 8.8c10.7 0 19.3 8.8 19.2 19.6-.1 10.6-8.8 19.1-19.5 19.1-10.6 0-19.2-8.8-19.2-19.4.1-10.7 8.8-19.4 19.5-19.3zm21.7 46.3c-2.4 2.4-5.2 4.2-8.4 5.4-3 1.2-6.3 1.7-9.5 2.1.5.5.7.8 1 1.1 4.4 4.4 8.8 8.8 13.2 13.3 1.5 1.5 1.8 3.4 1 5.1-.9 1.9-2.9 3.2-4.9 3.1-1.3-.1-2.2-.7-3.1-1.6-3.3-3.3-6.7-6.6-10-10-.9-1-1.4-.8-2.2.1-3.3 3.4-6.7 6.8-10.2 10.2-1.5 1.5-3.4 1.8-5.1.9-1.9-.9-3.1-2.8-3-4.8.1-1.3.7-2.3 1.6-3.2l13.1-13.1 1-1c-6-.7-11.3-2.1-15.9-5.7-.6-.4-1.2-.9-1.7-1.4-2-1.9-2.2-4.1-.6-6.4 1.4-1.9 3.6-2.5 6-1.3.5.2.9.5 1.3.8 8.5 5.9 20.2 6 28.8.3.8-.6 1.8-1.2 2.8-1.4 2-.5 3.9.2 5 2 1.3 1.9 1.3 3.9-.2 5.5z"/></svg>