<svg xmlns="http://www.w3.org/2000/svg" viewBox="0 0 94 94"><g fill-rule="evenodd" clip-rule="evenodd"><path d="M32.6 0h28.8C87.7 0 94 6.3 94 32.6v28.8C94 87.7 87.7 94 61.4 94H32.6C6.3 94 0 87.7 0 61.4V32.6C0 6.3 6.3 0 32.6 0" fill="#5c7fbd"/><path d="M77 32.4c.4-1.5 0-2.5-2.1-2.5H68c-1.7 0-2.5.9-3 1.9 0 0-3.5 8.5-8.4 14-1.6 1.6-2.3 2.1-3.2 2.1-.4 0-1.1-.5-1.1-2V32.4c0-1.7-.5-2.5-2-2.5H39.7c-1.1 0-1.7.8-1.7 1.6 0 1.7 2.5 2 2.7 6.7v10.1c0 2.2-.4 2.6-1.3 2.6-2.3 0-8-8.5-11.3-18.3-.7-1.9-1.3-2.7-3.1-2.7h-6.9c-2 0-2.3.9-2.3 1.9 0 1.8 2.3 10.8 10.8 22.7C32.3 62.6 40.2 67 47.5 67c4.4 0 4.9-1 4.9-2.7v-6.1c0-2 .4-2.3 1.8-2.3 1 0 2.8.5 6.8 4.4 4.6 4.6 5.4 6.7 8 6.7h6.9c2 0 2.9-1 2.4-2.9-.6-1.9-2.8-4.7-5.8-8-1.6-1.9-4-3.9-4.7-4.9-1-1.3-.7-1.9 0-3 0-.1 8.3-11.8 9.2-15.8" fill="#fff"/></g></svg>